<svg xmlns="http://www.w3.org/2000/svg" viewBox="0 0 560 720" font-family="system-ui,Arial" font-size="14">
<rect width="560" height="720" fill="#0d1117"/>
<defs>
<marker id="ar" markerWidth="12" markerHeight="12" refX="6" refY="5" orient="auto"><path d="M1,1 L9,5 L1,9" fill="none" stroke="#f0b429" stroke-width="2"/></marker>
<filter id="gl" x="-30%" y="-30%" width="160%" height="160%"><feGaussianBlur stdDeviation="5" result="b"/><feMerge><feMergeNode in="b"/><feMergeNode in="SourceGraphic"/></feMerge></filter>
</defs>
<text x="280" y="34" fill="#e9edf2" font-size="20" font-weight="800" text-anchor="middle">Cold Case - how memory flows</text>
<rect x="120" y="56" width="320" height="52" rx="10" fill="#161b22" stroke="#2a3038"/>
<text x="280" y="80" fill="#e9edf2" text-anchor="middle" font-weight="700">Enron emails + SEC filings</text>
<text x="280" y="98" fill="#8b949e" text-anchor="middle" font-size="12">517,401 messages + 22 EDGAR filings</text>
<line x1="280" y1="108" x2="280" y2="132" stroke="#f0b429" stroke-width="2" marker-end="url(#ar)"/>
<rect x="150" y="134" width="260" height="52" rx="10" fill="#161b22" stroke="#2a3038"/>
<text x="280" y="158" fill="#e9edf2" text-anchor="middle" font-weight="700">Embedding pipeline</text>
<text x="280" y="176" fill="#8b949e" text-anchor="middle" font-size="12">local GPU + graph/centrality</text>
<line x1="280" y1="186" x2="280" y2="210" stroke="#f0b429" stroke-width="2" marker-end="url(#ar)"/>
<rect x="70" y="212" width="420" height="238" rx="14" fill="#10203a" stroke="#1f6feb" stroke-width="2" filter="url(#gl)"/>
<text x="280" y="240" fill="#58a6ff" text-anchor="middle" font-size="17" font-weight="800">CockroachDB - the agent memory</text>
<rect x="90" y="256" width="185" height="40" rx="8" fill="#161b22" stroke="#2a3038"/>
<text x="182" y="281" fill="#f0b429" text-anchor="middle" font-weight="700" font-size="13">Vectors - 956,398</text>
<rect x="285" y="256" width="185" height="40" rx="8" fill="#161b22" stroke="#2a3038"/>
<text x="377" y="281" fill="#f0b429" text-anchor="middle" font-weight="700" font-size="13">Graph - 363,355 edges</text>
<rect x="90" y="304" width="185" height="40" rx="8" fill="#161b22" stroke="#2a3038"/>
<text x="182" y="329" fill="#f0b429" text-anchor="middle" font-weight="700" font-size="13">Hypotheses + findings</text>
<rect x="285" y="304" width="185" height="40" rx="8" fill="#161b22" stroke="#2a3038"/>
<text x="377" y="329" fill="#f0b429" text-anchor="middle" font-weight="700" font-size="13">Evidence (SHA-256)</text>
<rect x="90" y="352" width="185" height="40" rx="8" fill="#161b22" stroke="#2a3038"/>
<text x="182" y="377" fill="#f0b429" text-anchor="middle" font-weight="700" font-size="13">Suspect scores + history</text>
<rect x="285" y="352" width="185" height="40" rx="8" fill="#161b22" stroke="#2a3038"/>
<text x="377" y="377" fill="#f0b429" text-anchor="middle" font-weight="700" font-size="13">Session state</text>
<text x="280" y="422" fill="#8b949e" text-anchor="middle" font-size="12">ACID + vector search + SQL joins + durable across crashes + RBAC-sealed truth</text>
<line x1="280" y1="450" x2="280" y2="474" stroke="#f0b429" stroke-width="2" marker-end="url(#ar)"/>
<rect x="150" y="476" width="260" height="52" rx="10" fill="#161b22" stroke="#2a3038"/>
<text x="280" y="500" fill="#e9edf2" text-anchor="middle" font-weight="700">Agent tool loop</text>
<text x="280" y="518" fill="#8b949e" text-anchor="middle" font-size="12">local LLM + 13 tools</text>
<line x1="280" y1="528" x2="280" y2="552" stroke="#f0b429" stroke-width="2" marker-end="url(#ar)"/>
<rect x="130" y="554" width="300" height="52" rx="10" fill="#161b22" stroke="#2a3038"/>
<text x="280" y="578" fill="#e9edf2" text-anchor="middle" font-weight="700">Persistent investigation</text>
<text x="280" y="596" fill="#3fb950" text-anchor="middle" font-size="12">resumes across sessions and crashes</text>
<line x1="280" y1="606" x2="280" y2="630" stroke="#f0b429" stroke-width="2" marker-end="url(#ar)"/>
<rect x="150" y="632" width="260" height="52" rx="10" fill="#161b22" stroke="#2a3038"/>
<text x="280" y="656" fill="#e9edf2" text-anchor="middle" font-weight="700">Evaluation (blind)</text>
<text x="280" y="674" fill="#8b949e" text-anchor="middle" font-size="12">scored vs 18 real convictions</text>
<path d="M130 580 C 40 580, 40 331, 66 331" fill="none" stroke="#3fb950" stroke-width="1.6" stroke-dasharray="4 3" marker-end="url(#ar)"/>
<text x="34" y="470" fill="#3fb950" font-size="11" transform="rotate(-90 34 470)">resume from memory</text>
</svg>
